<?xml version="1.0" encoding="UTF-8" standalone="no"?>
<!-- Creator: CorelDRAW X6 -->

<svg
   xmlns:dc="http://purl.org/dc/elements/1.1/"
   xmlns:cc="http://creativecommons.org/ns#"
   xmlns:rdf="http://www.w3.org/1999/02/22-rdf-syntax-ns#"
   xmlns:svg="http://www.w3.org/2000/svg"
   xmlns="http://www.w3.org/2000/svg"
   xmlns:sodipodi="http://sodipodi.sourceforge.net/DTD/sodipodi-0.dtd"
   xmlns:inkscape="http://www.inkscape.org/namespaces/inkscape"
   xml:space="preserve"
   width="300"
   height="76"
   version="1.1"
   style="fill-rule:evenodd"
   viewBox="0 0 8466.6735 2144.8889"
   id="svg2"
   inkscape:version="0.48.5 r10040"
   sodipodi:docname="my-choice.svg"><metadata
   id="metadata18"><rdf:RDF><cc:Work
       rdf:about=""><dc:format>image/svg+xml</dc:format><dc:type
         rdf:resource="http://purl.org/dc/dcmitype/StillImage" /></cc:Work></rdf:RDF></metadata><sodipodi:namedview
   pagecolor="#ffffff"
   bordercolor="#666666"
   borderopacity="1"
   objecttolerance="10"
   gridtolerance="10"
   guidetolerance="10"
   inkscape:pageopacity="0"
   inkscape:pageshadow="2"
   inkscape:window-width="1024"
   inkscape:window-height="706"
   id="namedview16"
   showgrid="false"
   inkscape:zoom="3.0747215"
   inkscape:cx="95.215878"
   inkscape:cy="28.557322"
   inkscape:window-x="-8"
   inkscape:window-y="-8"
   inkscape:window-maximized="1"
   inkscape:current-layer="__x0023_Layer_x0020_1" />
 <defs
   id="defs4">
  <style
   type="text/css"
   id="style6">
   
    .str1 {stroke:#FEFEFE;stroke-width:5}
    .str0 {stroke:#2D2B2D;stroke-width:7.62}
    .fil0 {fill:none}
    .fil1 {fill:#E21D2C}
    .fil2 {fill:#5C4C54;fill-rule:nonzero}
   
  </style>
 </defs>
 <g
   id="__x0023_Layer_x0020_1"
   transform="translate(0,-3355.1139)">
  <metadata
   id="CorelCorpID_0Corel-Layer" />
  
  <polygon
   class="fil1"
   points="29700,2619 29700,4325 0,4325 0,2619 "
   id="polygon12"
   style="fill:#e21d2b;fill-opacity:1"
   transform="matrix(0.28462887,0,0,0.20278047,12.058275,3977.8522)" />
  <path
   class="fil2 str1"
   d="m 3224.6065,3513.3699 c 0,3.6755 -7.527,9.6479 -22.5813,19.296 -65.1094,42.2682 -122.3148,102.9137 -171.617,182.3957 -49.6782,79.4821 -106.1313,201.692 -169.3586,366.1698 -92.582,239.3648 -175.004,411.1938 -248.0153,516.4044 -72.6368,104.2909 -162.2087,179.6384 -269.4692,225.5822 49.3031,7.8102 87.6903,12.4046 114.4111,12.4046 85.8086,0 154.3053,-22.5121 205.865,-66.618 51.5601,-44.5653 124.5724,-143.8032 218.6607,-298.6325 6.3976,-9.1885 10.9142,-14.242 14.302,-14.242 2.2574,0.919 3.3866,2.7568 3.3866,6.4317 0,6.4316 -26.3448,50.5374 -78.6581,131.3986 -64.3563,98.7783 -121.5615,166.3157 -171.6164,202.1512 -50.4313,35.8356 -112.5291,54.2127 -186.2944,54.2127 -45.5386,0 -94.841,-5.9716 -147.907,-17.9176 -37.2584,14.7027 -75.6464,22.0531 -114.7871,22.0531 -29.3549,0 -44.4102,-6.4316 -44.4102,-19.7558 0,-16.9997 20.7,-25.269 62.0989,-25.269 22.9572,0 52.6893,3.6755 90.3247,10.1071 l 10.9138,0 c 59.0871,-25.7283 109.1427,-67.077 150.1652,-123.1284 41.0215,-56.0506 90.3246,-150.6939 147.5298,-283.9301 116.2933,-270.1482 208.876,-461.2725 276.6191,-573.3749 65.4855,-107.507 144.5194,-199.3943 236.35,-275.661 46.291,-37.2135 76.0224,-56.0505 89.1948,-56.0505 3.3875,0 5.2689,2.297 5.2689,6.4323 z m 402.321,274.7416 c 0,26.6471 -2.2575,51.9159 -7.1509,76.7253 -4.8923,24.8098 -10.1618,37.2145 -14.6781,37.2145 -4.1394,0 -6.0214,-1.8373 -6.0214,-5.0541 0.7525,-2.7567 1.1291,-5.513 1.882,-8.2693 8.2801,-23.8911 12.4196,-55.5912 12.4196,-95.5623 0,-90.5089 -29.7323,-167.2344 -88.8195,-230.1771 -59.0869,-62.9424 -131.3462,-94.1842 -216.4028,-94.1842 -137.3691,0 -278.5008,82.2389 -423.0199,247.1763 -57.2059,64.3201 -106.1316,127.2632 -147.1543,188.368 -39.5164,57.889 -117.0456,180.0977 -232.586,367.0883 -170.4877,275.6603 -310.4903,447.4896 -419.6327,516.4047 -48.9259,30.7818 -80.5396,45.9433 -94.4643,45.9433 -3.3871,0 -5.2692,-2.2972 -5.2692,-7.3506 0.7528,-0.9191 6.3978,-6.4328 17.6882,-16.5397 54.5714,-49.6185 97.8521,-116.237 130.2175,-199.8538 30.1092,-77.1848 84.3041,-258.6625 162.2092,-545.8086 66.6139,-244.8788 142.261,-420.3833 227.6927,-526.5123 3.0109,-4.1352 4.8934,-7.8103 4.8934,-10.5666 -7.1511,-2.2979 -23.7112,12.404 -49.3023,44.1053 -82.7975,101.0754 -180.273,281.6335 -292.4263,543.0519 -68.8725,160.3425 -129.4652,282.5516 -181.4032,365.2503 -52.3118,82.6983 -114.0332,155.2886 -185.917,218.2323 -118.1748,103.3723 -236.7258,154.8293 -355.6528,154.8293 -77.5284,0 -140.7561,-19.7561 -189.3055,-59.7274 -48.9258,-39.5113 -73.0125,-90.9683 -73.0125,-153.451 0,-35.3767 8.2799,-65.2401 25.2159,-89.1299 16.5594,-23.8907 37.6348,-36.2962 62.8511,-36.2962 36.1294,0 54.1947,21.5948 54.1947,65.2405 0,22.5128 -6.0217,41.3489 -17.689,56.969 -11.6667,16.0808 -25.9681,23.8913 -42.5277,23.8913 -27.4743,0 -41.0224,-17.9177 -41.0224,-54.6721 0,-13.7832 -2.2581,-20.2158 -6.7744,-20.2158 -9.0323,0 -13.5484,18.8365 -13.5484,56.051 0,55.5923 22.9571,101.0759 68.1196,136.9114 45.5387,35.3763 103.4976,53.2945 175.0041,53.2945 145.6484,0 288.286,-92.3463 427.9126,-276.5791 56.0768,-73.9697 103.8733,-146.1009 143.0141,-216.8531 39.141,-70.2941 116.6691,-223.745 232.962,-459.8944 48.9256,-100.1567 104.2498,-190.6654 165.9715,-272.4447 61.3456,-81.3199 105.3792,-122.6694 131.7228,-122.6694 4.1402,0 6.0224,2.2972 6.0224,6.4321 -0.7525,2.7566 -1.8822,5.5132 -3.3879,8.27 -51.9357,69.374 -98.6038,200.3133 -140.379,392.3569 -62.4746,282.552 -121.1851,487.4605 -176.5095,616.1019 -54.571,125.4259 -124.5729,220.0689 -210.3804,284.3904 -2.2584,0.9187 -3.3875,2.2967 -3.3875,4.1341 0.7526,0.919 1.882,1.3792 3.3875,2.2982 12.7957,0 44.0324,-21.5937 93.7115,-65.2401 60.2165,-51.9161 115.9159,-113.4803 166.3473,-185.6123 50.8082,-72.1308 143.0144,-219.6094 276.2426,-442.8943 94.0887,-157.5862 168.9826,-272.9039 224.6833,-345.9539 55.3237,-73.0509 116.6689,-137.3715 184.4123,-193.4227 105.3787,-86.3738 211.5101,-129.5604 318.7704,-129.5604 93.7123,0 170.4878,33.0795 231.0806,99.6972 60.593,66.6182 90.7013,151.1537 90.7013,253.6078 z m -1324.3852,-57.4289 c 0,15.161 -15.8064,44.105 -47.7971,87.7518 -48.1726,66.1587 -94.4635,99.2379 -139.2499,99.2379 -30.8608,0 -56.8292,-13.7829 -77.9048,-41.349 -21.4512,-27.5667 -31.9913,-61.1052 -31.9913,-101.5357 0,-38.5921 11.2926,-85.4541 34.2494,-139.6677 28.603,-67.9968 42.9042,-115.7774 42.9042,-143.3438 0,-34.9169 -13.5482,-62.4829 -40.2693,-83.6173 -26.7218,-21.1337 -61.7223,-31.7009 -105.0029,-31.7009 -124.5723,0 -241.2418,61.1048 -350.0078,183.7739 -109.1418,122.6698 -163.7135,252.6893 -163.7135,390.9793 0,71.2119 18.0649,129.5601 53.819,175.0448 36.1289,45.4835 82.0445,67.9961 138.4971,67.9961 50.0552,0 100.8626,-17.4587 152.7993,-52.3753 51.5604,-34.9174 93.3355,-79.9418 124.9495,-135.0739 2.2582,-3.6754 4.1393,-5.0541 5.2694,-5.0541 4.5151,0 6.397,3.2162 6.397,9.1882 0,13.7835 -17.687,39.5116 -53.4418,78.5641 -73.7652,81.3197 -153.5519,121.75 -239.3603,121.75 -60.2164,0 -109.5181,-23.8908 -147.5303,-71.2122 -38.0113,-47.781 -56.8289,-109.8048 -56.8289,-186.0713 0,-147.4781 56.0763,-283.4711 167.477,-407.0594 111.7767,-124.047 234.0909,-186.0704 366.5668,-186.0704 54.5716,0 97.4755,16.539 127.9602,50.078 31.237,33.0796 46.6675,79.0227 46.6675,137.3706 0,44.1063 -17.6885,110.2647 -53.4424,199.3953 -12.419,31.2415 -18.4409,56.0507 -18.4409,74.4288 0,51.9155 22.9577,77.6437 68.8724,77.6437 27.4746,0 57.9585,-16.0799 91.83,-48.2407 33.8715,-32.6194 60.9701,-71.6717 82.0453,-118.0746 2.6341,-6.8917 5.2688,-10.107 8.2797,-10.107 4.5161,0 6.3974,2.2965 6.3974,7.8104 z m 1106.1,756.6887 c 0,10.1074 -30.8603,56.9695 -92.206,140.1271 -68.1199,91.4281 -156.9393,174.1268 -266.081,247.636 l -41.0227,90.049 c -80.916,176.8824 -165.2189,308.7398 -253.2851,395.1137 -91.0777,89.13 -169.7355,133.6958 -236.7258,133.6958 -22.9576,0 -41.7753,-8.7298 -57.2059,-26.6471 -15.4301,-17.9187 -22.9573,-39.5123 -22.9573,-65.6993 0,-136.4517 129.0887,-278.4179 387.2672,-424.5181 21.4516,-12.8641 53.0654,-30.7818 95.217,-54.2131 l 12.4192,-9.1889 147.1538,-319.766 c -57.9581,97.4005 -100.1094,161.261 -126.0776,191.5839 -26.3446,30.3223 -52.6895,45.4839 -79.7868,45.4839 -22.958,0 -42.9047,-11.9457 -59.84,-35.8355 -16.9356,-23.8908 -25.5921,-51.4563 -25.5921,-83.6173 0,-38.592 19.5705,-99.238 59.4634,-181.4765 l 129.0891,-265.5539 c 12.7966,2.7569 27.8501,4.1355 44.4102,4.1355 14.6777,0 34.6234,-2.2974 60.2158,-7.3513 l -164.4664,327.1176 c -46.6673,92.8062 -70.0013,153.4516 -70.0013,181.9366 0,30.782 11.2908,45.9429 34.2484,45.9429 60.2159,0 152.7989,-130.4789 277.7486,-391.4379 l 76.7754,-160.3434 c 12.7963,2.7569 28.6029,4.1355 46.6673,4.1355 15.0545,0 33.4959,-2.2974 56.077,-7.3513 -68.8719,134.1553 -162.584,330.7933 -280.7596,589.914 68.1206,-43.1867 125.702,-89.59 172.7458,-139.6678 46.6681,-50.0788 99.3574,-120.8311 157.3161,-212.2587 7.9037,-12.4054 12.7952,-18.3778 15.0533,-18.3778 3.3875,0 5.2693,2.2967 5.2693,6.4324 z m -482.8596,443.8137 c -9.0328,6.4318 -40.2699,25.7286 -94.4647,58.3483 -253.6617,153.9104 -380.4924,292.1999 -380.4924,414.8697 0,50.9976 23.3338,76.7258 70.3782,76.7258 59.0866,0 117.7975,-39.0525 176.5092,-117.156 58.3345,-78.5641 130.9703,-215.9342 217.5314,-412.1125 0,0 3.7635,-6.4326 10.9146,-20.6753 z M 5159.4355,3675.091 c 0,44.1056 -25.2207,90.0495 -75.2643,137.8301 45.5322,82.2384 68.49,158.0457 68.49,227.8801 0,16.9985 -4.1415,25.2689 -12.4182,25.2689 -6.399,0 -10.1618,-11.0267 -10.1618,-33.9984 0,-67.9963 -19.5741,-137.3715 -58.7156,-207.2048 -80.9136,73.5088 -190.4314,136.911 -329.6802,190.2055 -138.8776,53.2948 -262.3195,79.9415 -369.9565,79.9415 -15.0539,0 -28.2268,-0.9189 -39.5168,-2.2973 -89.1956,152.0729 -133.6051,298.1739 -133.6051,438.7602 0,96.0216 24.086,172.2876 73.0121,227.8803 48.9257,55.5907 115.1639,83.6168 199.4664,83.6168 158.8206,0 300.3311,-92.8052 424.5252,-278.8769 74.896,-112.1026 112.53,-218.2318 112.53,-318.8476 0,-52.8351 -13.1721,-95.103 -39.14,-126.3449 -26.3464,-31.2413 -60.5956,-46.8617 -104.2471,-46.8617 -69.2517,0 -143.7682,44.5645 -223.5551,134.1539 -79.7865,89.1307 -119.6829,172.2889 -119.6829,249.9334 0,6.4317 1.8845,10.107 4.8951,10.107 3.0105,-0.9189 4.893,-2.2971 6.3979,-4.1347 14.675,-16.5399 28.6034,-24.3497 41.0225,-24.3497 27.8463,0 41.7762,18.8364 41.7762,56.0513 0,50.5368 -19.948,75.8061 -59.8412,75.8061 -36.5078,0 -54.9483,-27.1068 -54.9483,-81.3198 0,-97.3998 40.6455,-193.8819 121.1844,-289.4441 80.9165,-95.5623 162.5869,-143.3434 245.7585,-143.3434 106.883,0 160.3267,71.6719 160.3267,215.4747 0,148.397 -58.334,283.471 -174.25,405.6806 -116.2946,122.2105 -245.0048,183.3153 -386.8916,183.3153 -98.6041,0 -181.4022,-40.4313 -248.7688,-121.7513 -66.9903,-80.8598 -100.8622,-181.017 -100.8622,-300.01 0,-115.7779 33.1194,-234.3125 99.7333,-356.5221 -241.242,-54.2127 -361.675,-170.4496 -361.675,-349.1697 0,-106.1301 44.7865,-194.8004 134.3582,-266.0127 89.948,-71.2128 201.3484,-107.5075 335.3303,-107.5075 186.6709,0 375.2215,75.8059 565.6564,227.4195 33.1217,-7.81 66.6173,-12.4049 101.2411,-12.4049 111.0218,0 166.3456,33.5393 166.3456,100.1574 z m -13.5496,0.4596 c 0,-55.5921 -44.411,-83.6178 -133.9809,-83.6178 -27.8494,0 -60.9699,4.5947 -99.3599,13.7836 66.233,55.591 120.8121,120.8307 164.4697,194.7998 45.5381,-47.3215 68.4989,-89.1301 68.4989,-124.9656 z m -80.9142,135.5327 c -42.904,-75.8068 -100.8638,-142.4242 -173.1235,-200.7724 -104.2508,34.457 -205.8631,94.1832 -304.8459,179.1791 -99.3569,84.9955 -180.6489,181.4768 -244.2525,289.9038 116.6694,0 245.3827,-26.1886 386.516,-78.5641 141.5051,-51.9161 253.2851,-115.3175 335.7059,-189.2871 z m -196.4616,-219.6099 c -169.3532,-119.4527 -349.6269,-179.1794 -540.814,-179.1794 -118.1749,0 -221.2956,33.998 -309.7387,101.995 -88.0667,68.4549 -132.4759,147.4779 -132.4759,238.9057 0,162.64 112.9062,267.8502 339.0932,315.6317 140.3801,-239.3652 354.9007,-398.33 643.5636,-477.353 z m 741.7932,893.6 c 0,5.5135 -3.0075,11.4867 -8.279,18.378 l -36.1283,60.186 c -104.6269,177.8011 -182.5295,266.9316 -233.7181,266.9316 -26.7191,0 -48.5478,-11.9456 -65.483,-35.3763 -16.9329,-23.4317 -25.2179,-52.835 -25.2179,-88.2112 0,-47.7816 21.0799,-110.2646 63.2329,-186.5312 66.2351,-118.9936 99.3542,-189.7464 99.3542,-212.2583 0,-26.6475 -11.2902,-39.5115 -34.2579,-39.5115 -33.4863,0 -79.0235,39.971 -136.985,120.3723 -55.698,77.1843 -132.0985,222.8259 -229.5726,437.3815 -16.9427,-4.1355 -31.236,-6.4328 -42.9051,-6.4328 -12.4201,0 -28.9775,2.2973 -49.6786,6.4328 l 123.0663,-271.5257 c 16.5602,-38.5927 42.1529,-95.5627 76.7759,-171.3693 18.4437,-36.755 74.8972,-153.9105 169.7388,-351.0083 l 126.8274,-263.2563 c 16.9362,3.6754 30.8627,5.973 42.5286,5.973 22.2073,0 43.6583,-3.2165 63.6038,-10.1072 -57.9558,113.4794 -144.1446,283.9296 -258.9296,510.4313 -3.39,6.8916 -46.6683,94.6437 -129.4651,263.7162 104.6169,-189.747 187.4276,-284.85 248.3933,-284.85 24.0865,0 44.4094,12.4046 61.7212,37.6744 16.935,25.2677 25.2255,55.5907 25.2255,91.886 0,46.8624 -24.4724,114.3993 -73.7778,203.0702 -54.9469,98.7788 -82.0416,160.3431 -82.0416,185.6111 0,29.4045 12.0387,44.1057 36.1295,44.1057 43.6547,0 115.9118,-85.9142 216.4015,-258.6617 l 25.9677,-44.1058 15.0512,-22.5119 c 2.6465,-6.8915 5.2752,-10.5671 9.0352,-10.5671 1.8824,0 3.0121,1.3781 3.0121,4.1345 z m 496.4099,2.2979 c 0,11.0264 -16.5562,36.2952 -49.3,76.2661 -48.9287,59.7263 -94.0895,90.0488 -135.1114,90.0488 -17.3071,0 -32.7412,-4.1342 -45.9154,-12.4044 -73.7661,126.3451 -142.6373,189.7464 -206.9929,189.7464 -33.4967,0 -62.0977,-16.5397 -85.8093,-50.5383 -23.7115,-33.5378 -35.3776,-73.9685 -35.3776,-120.8305 0,-104.2919 56.0772,-205.3668 168.9806,-302.7682 79.4116,-68.4543 144.5221,-102.9128 195.7051,-102.9128 47.7955,0 71.883,31.2418 71.883,93.7247 0,78.5634 -33.494,172.7472 -100.8633,283.0119 11.2904,7.8105 23.7103,12.4049 37.2612,12.4049 25.2242,0 54.5704,-14.243 87.6879,-42.7281 33.4974,-28.4848 60.5941,-62.4827 81.6679,-102.9131 6.399,-9.1884 10.5393,-14.2431 13.551,-14.2431 2.2579,0 3.3888,1.3789 3.3888,4.1357 z m -134.3555,-137.3711 c 0,-55.5918 -20.3236,-82.6983 -60.9706,-82.6983 -50.8081,0 -112.5289,59.2669 -185.5352,177.802 -73.0201,118.9931 -109.5255,218.2306 -109.5255,299.5511 0,46.862 18.4416,70.2928 54.9479,70.2928 60.2192,0 126.0762,-60.645 197.5857,-181.9358 -16.1852,-22.0523 -24.086,-44.1054 -24.086,-67.5369 0,-33.0793 10.9127,-67.5369 32.3675,-102.9133 21.8248,-35.3768 42.9032,-52.8352 63.6021,-52.8352 9.0325,0 14.6765,6.4323 18.4402,20.2151 9.0318,-23.8906 13.5486,-50.0775 13.5486,-79.482 z m 410.9766,-283.4706 c 0,23.8903 -8.2806,46.4021 -24.8364,67.0775 -16.19,20.6742 -34.2534,31.2405 -53.8264,31.2405 -25.2135,0 -37.6364,-15.1612 -37.6364,-45.9431 0,-22.5124 8.6646,-44.1054 25.9741,-64.7802 17.3105,-20.6746 35.3773,-31.2417 54.5735,-31.2417 24.0828,0 36.1291,14.702 36.1291,44.1059 z m 11.2898,421.3008 c -0.7564,2.2978 -3.3867,7.8112 -8.6531,16.5398 l -36.1361,60.1862 c -104.243,177.8013 -184.4076,266.9313 -239.3569,266.9313 -26.343,0 -47.797,-11.4862 -65.4849,-33.9982 -17.3128,-22.5126 -26.3448,-50.9968 -26.3448,-84.9952 0,-39.5109 19.1964,-99.2382 57.58,-179.1792 l 130.5922,-270.1482 c 17.3152,5.054 30.8646,7.3509 40.653,7.3509 15.0536,0 36.126,-2.2969 63.598,-7.3509 l -190.0567,380.4116 c -27.4742,55.1334 -41.0225,97.4006 -41.0225,127.264 0,30.7827 13.171,45.9429 39.5181,45.9429 49.3002,0 136.6162,-108.4259 261.1908,-324.8191 3.0106,-6.8929 5.2698,-10.5682 8.2749,-10.5682 3.3839,0 5.2698,2.2976 5.2698,6.4323 z m 415.8663,0 c 0,8.7297 -39.5288,66.1595 -117.7971,171.829 -85.4293,114.3988 -158.8147,172.2878 -218.6645,172.2878 -38.7491,0 -72.2545,-17.9178 -100.1044,-54.673 -27.8488,-36.2951 -41.7776,-79.4811 -41.7776,-130.0195 0,-56.9697 18.823,-115.7779 56.8293,-177.3423 38.012,-61.1047 89.204,-113.4803 153.1758,-157.586 53.8259,-38.1331 98.23,-56.9697 132.1043,-56.9697 41.3966,0 62.0992,29.8635 62.0992,90.0492 0,46.8617 -12.8012,93.7252 -38.7707,140.5863 -25.967,46.8638 -51.9476,70.2939 -77.5286,70.2939 -25.2144,0 -37.6341,-15.1603 -37.6341,-45.9436 0,-36.2951 25.587,-69.8327 77.1531,-100.156 39.5173,-23.8901 59.4652,-55.1325 59.4652,-94.1846 0,-30.7817 -13.5498,-45.9433 -41.0229,-45.9433 -46.2929,0 -103.1221,56.0508 -170.867,168.613 -67.7435,112.5612 -101.2342,206.7452 -101.2342,283.0113 0,64.3213 24.4652,96.0214 73.3861,96.0214 77.1509,0 181.0241,-106.1289 311.9981,-318.8471 7.5297,-11.0268 12.4274,-16.5402 15.8059,-16.5402 2.2601,0.9186 3.3841,2.7564 3.3841,6.4323 z m 421.5164,2.2978 c 0,2.297 -5.2681,11.0262 -15.0533,26.6467 l -36.1237,55.1321 c -115.1732,173.6667 -214.1474,260.0402 -296.5704,260.0402 -39.1452,0 -71.5105,-16.9994 -98.2399,-51.4573 -26.7102,-33.9972 -39.5029,-77.1842 -39.5029,-129.1003 0,-122.2096 69.9965,-229.7176 209.6246,-322.9833 73.7653,-49.159 133.6064,-73.509 179.8943,-73.509 19.9463,0 37.2671,7.3509 51.1954,22.0528 14.292,14.702 21.4435,32.6198 21.4435,53.7538 0,48.7005 -26.3404,90.5087 -78.2763,124.9662 -52.3226,33.9977 -139.631,66.618 -261.9485,96.0215 -38.0114,70.2937 -56.8304,128.6425 -56.8304,175.5041 0,58.3486 25.9684,87.7521 77.5384,87.7521 88.0609,0 195.3274,-104.7511 322.5265,-314.7124 6.4021,-11.0265 12.0461,-16.5397 16.5616,-16.5397 2.2578,0.9188 3.3844,2.7567 3.3844,6.4325 z m -69.247,-189.7463 c 0,-22.0535 -9.7821,-32.6205 -29.356,-32.6205 -29.357,0 -68.1215,25.2696 -116.2919,75.3473 -48.1808,49.6192 -95.5866,114.8592 -141.887,194.3416 80.5395,-25.27 148.2832,-60.6462 203.9781,-106.5895 55.7065,-45.9433 83.5568,-89.5898 83.5568,-130.4789 z"
   id="path14"
   inkscape:connector-curvature="0"
   style="fill:#333333;fill-rule:nonzero;stroke:#fefefe;stroke-width:2.07911921000000000;fill-opacity:1" />
 </g>
</svg>